HIERARCHY
ROOT Hips
{
  OFFSET 0 0 0
  CHANNELS 6 Xposition Yposition Zposition Zrotation Xrotation Yrotation
  JOINT Spine
  {
    OFFSET 0 8.08348 0
    CHANNELS 3 Zrotation Xrotation Yrotation
    JOINT Spine1
    {
      OFFSET 0 24.6145 0
      CHANNELS 3 Zrotation Xrotation Yrotation
      JOINT Neck
      {
        OFFSET 0 24.5134 2.22849
        CHANNELS 3 Zrotation Xrotation Yrotation
        JOINT Head
        {
          OFFSET 0 13.8011 -1.97158
          CHANNELS 3 Zrotation Xrotation Yrotation
          End Site
          {
            OFFSET 0 19.7158 0
          }
        }
      }
      JOINT LeftShoulder
      {
        OFFSET 3.94856 23.7669 -0.001842
        CHANNELS 3 Zrotation Xrotation Yrotation
        JOINT LeftArm
        {
          OFFSET 8.44442 0 0
          CHANNELS 3 Zrotation Xrotation Yrotation
          JOINT LeftForeArm
          {
            OFFSET 36.6799 0 0
            CHANNELS 3 Zrotation Xrotation Yrotation
            JOINT LeftHand
            {
              OFFSET 28.1618 0 0
              CHANNELS 3 Zrotation Xrotation Yrotation
              End Site
              {
                OFFSET 14.7869 0 0
              }
            }
          }
        }
      }
      JOINT RightShoulder
      {
        OFFSET -3.93736 23.7669 -0.001842
        CHANNELS 3 Zrotation Xrotation Yrotation
        JOINT RightArm
        {
          OFFSET -8.44442 0 0
          CHANNELS 3 Zrotation Xrotation Yrotation
          JOINT RightForeArm
          {
            OFFSET -36.6799 0 0
            CHANNELS 3 Zrotation Xrotation Yrotation
            JOINT RightHand
            {
              OFFSET -28.1618 0 0
              CHANNELS 3 Zrotation Xrotation Yrotation
              End Site
              {
                OFFSET -14.7869 0 0
              }
            }
          }
        }
      }
    }
  }
  JOINT LeftUpLeg
  {
    OFFSET 9.8579 0 0
    CHANNELS 3 Zrotation Xrotation Yrotation
    JOINT LeftLeg
    {
      OFFSET 0 -43.507 0
      CHANNELS 3 Zrotation Xrotation Yrotation
      JOINT LeftFoot
      {
        OFFSET 0 -37.4368 0
        CHANNELS 3 Zrotation Xrotation Yrotation
        JOINT LeftToeBase
        {
          OFFSET 0 -6.40764 14.7869
          CHANNELS 3 Zrotation Xrotation Yrotation
          End Site
          {
            OFFSET 0 0 3.94316
          }
        }
      }
    }
  }
  JOINT RightUpLeg
  {
    OFFSET -9.8579 0 0
    CHANNELS 3 Zrotation Xrotation Yrotation
    JOINT RightLeg
    {
      OFFSET 0 -43.507 0
      CHANNELS 3 Zrotation Xrotation Yrotation
      JOINT RightFoot
      {
        OFFSET 0 -37.4368 0
        CHANNELS 3 Zrotation Xrotation Yrotation
        JOINT RightToeBase
        {
          OFFSET 0 -6.40764 14.7869
          CHANNELS 3 Zrotation Xrotation Yrotation
          End Site
          {
            OFFSET 0 0 3.94316
          }
        }
      }
    }
  }
}
MOTION
Frames:	15
Frame Time:	0.0166667
-39.4074 88.9487 -17.5902 1.05585 2.99542 28.2267 5.42313 9.25819 -19.7559 9.08178 -6.64559 -5.91055 13.2965 4.61351 -2.75441 -9.23788 -20.0622 -7.17981 13.2519 -2.10559 -7.6646 -17.1757 17.5581 -35.4629 19.8567 -17.8648 -63.7742 -1.08803 -5.67449 5.51918 4.35549 7.32372 1.30448 53.8671 4.52454 -27.284 3.96342 -21.1634 28.4434 -14.4377 -21.4894 -5.16844 -11.2393 19.837 4.0274 -3.49603 13.6289 -11.025 22.1818 10.6748 -4.25307 7.95139e-016 -3.18055e-015 -7.95139e-016 0.86538 -38.8027 6.02212 9.09944 22.1066 -3.26681 -3.07327 -4.97925 -38.1406 -7.55382e-015 1.59028e-015 -3.97569e-016 
-38.6271 87.3755 -16.0411 1.63886 4.17449 29.1835 5.1741 9.23456 -18.8748 8.23662 -6.91742 -5.65364 13.1959 4.37283 -3.49655 -9.63278 -21.1766 -8.18154 13.379 -1.86301 -7.54612 -17.6951 18.7105 -35.6868 19.1119 -16.2744 -61.6045 -0.751176 -4.98244 4.96432 4.3881 7.45721 1.28812 53.7075 4.76727 -27.1676 3.69762 -21.3447 29.2311 -13.58 -21.6897 -4.98453 -12.0977 20.564 3.56566 -3.50192 14.5017 -11.2079 22.5638 7.9912 -2.77978 -7.95139e-016 -9.54166e-015 3.18055e-015 -0.0332789 -38.3158 4.0701 9.10767 22.7296 -3.86046 -5.01472 -4.92494 -38.5007 1.19271e-015 1.59028e-015 7.95139e-016 
-37.7049 85.9239 -14.4507 2.08451 5.40386 29.6153 5.10983 9.14051 -17.8175 7.59924 -7.07897 -5.3323 12.8583 4.18018 -4.09511 -9.99199 -22.6164 -9.02414 13.1558 -1.70093 -7.52765 -18.8255 20.0011 -35.1729 18.1719 -14.977 -59.5748 -0.955725 -4.66049 4.35224 4.3419 7.40162 1.08593 53.2585 4.96708 -26.6526 3.57141 -21.8754 29.7717 -13.1126 -22.2235 -4.99384 -13.0065 20.9463 3.37981 -3.40951 15.5457 -11.2297 22.2993 6.11164 -1.907 1.59028e-015 -9.54166e-015 -1.59028e-015 -0.692086 -38.2242 1.6462 9.07324 24.3174 -3.42651 -6.86992 -4.82473 -39.1066 -4.96962e-015 -1.59028e-015 -1.59028e-015 
-36.7424 84.6285 -12.7798 2.25908 6.64711 29.5854 5.23522 8.89587 -16.6446 7.24661 -7.04951 -4.96462 12.268 4.00665 -4.56408 -10.2589 -24.2141 -9.69052 12.392 -1.00409 -7.71988 -20.1751 20.8173 -33.999 17.0036 -13.9092 -57.7712 -1.01506 -4.6064 4.18673 4.4951 7.27063 0.882611 52.1603 4.69094 -25.6818 3.4986 -22.2231 29.9228 -12.7336 -22.5791 -4.92952 -13.639 20.5811 3.89509 -2.99604 17.4673 -11.4135 19.8841 4.66974 -1.60997 -1.59028e-015 -6.36111e-015 -1.59028e-015 -0.798705 -38.7126 -1.24274 8.31979 24.4787 -5.42465 -10.8973 -3.73716 -36.8171 1.59028e-015 -1.59028e-015 -1.59028e-015 
-36.0495 83.7678 -11.2669 1.47617 7.49707 28.7927 6.06309 9.24849 -15.1195 7.3994 -7.20328 -4.40855 12.1298 3.94071 -4.85353 -10.9358 -26.6233 -10.4401 11.47 -0.468594 -7.68835 -22.4258 21.4369 -32.476 16.1818 -12.2877 -55.546 -0.82064 -3.81088 3.83582 4.92156 7.25315 1.16639 50.581 3.81832 -23.9755 3.35709 -22.2927 29.1818 -12.1711 -22.6674 -4.39568 -12.8949 18.7241 5.17276 -2.27891 20.9617 -10.9204 13.6493 3.63522 -3.25706 6.36111e-015 -3.18055e-015 1.59028e-015 -0.174368 -41.478 -2.51001 7.773 27.7935 -1.21095 -13.3757 1.13579 -32.2995 4.96962e-017 7.95139e-016 1.59028e-015 
-35.3418 83.4578 -9.70356 0.238168 7.4758 27.307 7.68441 10.2238 -13.8978 7.67024 -6.80052 -3.94519 11.8796 3.29941 -4.69419 -11.0277 -28.162 -10.4921 10.0694 0.410894 -7.14569 -25.3236 21.5344 -30.4342 16.14 -10.4674 -52.8065 -0.464849 -2.45818 3.52099 5.70035 7.90171 2.04377 48.6866 2.9926 -20.7042 2.83115 -22.5445 27.645 -11.6953 -22.801 -4.08906 -10.8222 16.5344 5.81952 -2.8915 24.8258 -7.78022 6.76681 5.71224 -7.52452 1.59028e-015 6.36111e-015 -0 1.50872 -43.9196 -2.79332 7.7905 33.1891 5.78295 -13.521 3.9269 -33.1951 6.89673e-034 -3.97569e-016 9.93923e-017 
-34.6109 83.2397 -7.95385 -0.176743 6.80415 25.3599 8.2738 12.0409 -12.8612 8.33709 -6.25082 -3.53984 11.8659 2.96349 -4.29641 -11.4533 -28.7486 -10.3335 8.70318 1.85225 -7.5227 -28.9387 20.532 -27.2333 15.2296 -8.75447 -50.0316 0.303961 -1.61972 3.42233 5.67966 8.31432 3.00008 47.996 3.80189 -17.0181 1.85017 -23.1429 25.5852 -10.9624 -23.1721 -4.04704 -8.83326 14.6555 7.0705 -3.93271 29.511 -6.23508 2.59495 9.57815 -11.5421 3.18055e-015 3.18055e-015 3.18055e-015 3.245 -44.4051 -3.13794 7.08789 36.4834 7.96325 -10.3492 6.10999 -35.3339 -2.98177e-016 7.95139e-016 1.98785e-016 
-33.9063 82.9841 -6.10095 -0.114384 5.98793 23.372 8.41692 13.9844 -11.9285 8.61337 -5.98744 -3.18031 11.7865 3.54627 -3.92687 -12.0394 -29.5316 -10.1863 7.27851 3.40778 -7.64577 -31.3038 20.6749 -24.8505 13.3586 -8.02934 -46.3306 1.56525 -2.2666 2.9627 4.93724 8.24668 3.66832 48.6274 5.87145 -13.8978 0.564705 -23.494 24.4026 -9.23476 -23.2605 -4.66093 -6.93075 12.5683 8.70489 -4.79095 35.4029 -9.48881 -1.07229 13.6144 -11.2241 3.18055e-015 0 -0 4.7542 -43.6966 -2.3729 7.16196 38.1394 5.70067 -10.16 6.2809 -32.0431 -2.73329e-016 -7.95139e-016 -0 
-33.3595 82.6937 -4.29504 0.309469 5.29116 21.6581 8.21102 15.9133 -10.9421 8.27976 -6.22172 -2.81358 11.4352 4.42837 -4.05626 -11.4675 -30.2983 -10.0374 6.18768 4.61699 -7.18432 -32.7827 22.2384 -23.6789 11.0979 -7.58295 -41.9833 2.62369 -3.27919 2.15678 4.69217 7.98633 3.92199 49.0566 7.4187 -11.6502 0.394022 -22.8011 24.8478 -9.98225 -22.4195 -5.72511 -5.20816 9.98332 10.1168 -5.24608 42.4214 -13.8019 -5.00065 15.9851 -8.94687 -6.36111e-015 6.36111e-015 4.77083e-015 5.95094 -42.6692 -1.57083 7.24282 40.3227 6.89228 -11.5904 4.34122 -32.8697 -4.96962e-017 -1.59028e-015 -3.97569e-016 
-32.9554 82.456 -2.56745 0.810797 5.02448 20.7102 7.84785 16.9743 -10.2562 7.64577 -6.03613 -2.62159 10.8124 5.12966 -4.52546 -10.1771 -31.3298 -9.95963 5.73787 5.03168 -6.8371 -34.8467 23.8657 -22.539 9.33656 -6.67886 -37.3533 1.78774 -3.50467 1.42561 4.55221 7.80964 3.92466 49.3635 7.97465 -9.62601 0.912776 -20.8204 26.5311 -11.2543 -20.4771 -5.90426 -3.42957 6.44631 9.61275 -6.73105 50.0213 -16.9526 -9.00545 17.1943 -5.87809 6.36111e-015 0 3.18055e-015 6.38934 -41.7038 -0.689833 7.74559 41.941 7.52516 -13.0213 1.97757 -33.8861 8.69683e-017 0 1.98785e-016 
-32.6347 82.4234 -1.00913 1.02456 5.3758 20.0649 7.59148 17.2358 -9.57821 6.64871 -5.80386 -2.4684 10.9551 5.32939 -4.75128 -9.83551 -31.7297 -10.0826 5.92898 4.96581 -6.96166 -38.1345 24.2436 -20.6357 7.53942 -5.17482 -33.1919 0.962354 -2.92021 1.05529 4.58546 8.06933 4.19009 49.8754 8.34994 -7.72295 0.952296 -18.9027 28.2149 -11.6387 -18.6869 -4.58399 -1.57049 2.21853 8.06104 -10.5715 56.6001 -15.4024 -14.3313 18.5881 -3.11137 9.54166e-015 0 -0 6.74725 -41.2913 0.605902 8.4805 42.7846 5.49983 -13.9448 0.070925 -33.0358 4.96962e-017 0 3.97569e-016 
-32.3166 82.6466 0.578115 1.20032 5.70391 19.6959 7.42535 17.2507 -9.24662 5.73264 -5.32939 -2.43606 11.0901 5.49197 -5.07763 -9.54149 -32.1463 -10.331 5.75836 5.16827 -7.22952 -40.9008 24.2672 -18.5849 5.71635 -3.9099 -29.2973 2.49739 -2.39973 0.736479 4.66068 8.62474 4.20439 50.3806 9.9508 -5.28705 -0.0035244 -17.9383 29.6679 -10.9295 -17.5838 -3.88117 0.012798 -1.88225 7.14582 -13.5411 62.4361 -13.354 -16.612 18.4277 1.2202 6.36111e-015 -1.59028e-015 4.77083e-015 6.59024 -40.5753 1.32495 9.58537 43.1373 4.50867 -14.5924 -1.26098 -33.2256 -6.21202e-017 -7.95139e-016 5.96354e-016 
-31.9544 83.1025 2.1189 1.45943 6.09815 19.1885 7.10829 17.4022 -8.95207 5.10621 -5.18451 -2.38639 11.1917 5.32198 -5.18822 -9.62648 -31.8099 -10.4807 5.13303 5.68722 -7.2895 -43.0571 24.5378 -16.6672 4.05278 -3.06542 -25.7124 5.03357 -2.13104 0.208789 4.67689 8.87399 4.02146 50.7703 12.8649 -3.20962 -1.61413 -17.6281 31.0971 -10.3332 -16.9055 -3.40357 1.19559 -5.61615 7.22696 -15.0601 67.2198 -10.6537 -15.8995 15.7039 3.2715 3.18055e-015 -4.77083e-015 -6.36111e-015 6.15217 -39.8532 0.863316 9.93922 43.4848 5.46504 -15.2532 -1.70658 -33.9209 2.75869e-033 -7.95139e-016 1.98785e-016 
-31.5783 83.6935 3.64397 1.70618 6.49383 18.4186 6.75507 17.6634 -8.62235 4.64615 -5.41834 -2.30062 10.9402 5.44936 -5.26296 -9.2287 -31.4728 -10.3295 4.52159 6.17748 -6.90665 -45.0658 25.8418 -14.6686 2.95417 -3.16395 -22.9786 5.84094 -2.53505 0.555034 4.50206 8.81925 4.12878 51.2628 16.0501 -1.8852 -2.79284 -18.2139 32.9208 -11.9031 -17.0444 -3.85455 2.35246 -8.79651 7.96027 -16.1162 70.3592 -6.0072 -12.8081 13.7833 1.9175 1.32417e-031 -1.59028e-015 4.77083e-015 6.02102 -39.0853 -0.312927 8.66861 43.8216 8.34524 -14.5646 -2.10011 -34.0053 -6.21202e-017 -1.59028e-015 3.97569e-016 
-31.2381 84.3378 5.15943 1.79192 6.76123 17.4805 6.50846 18.0327 -8.20283 4.47933 -5.88152 -2.15629 10.2907 5.73147 -5.25842 -8.61598 -31.2752 -9.96804 3.97955 6.44619 -6.51872 -47.3049 28.014 -12.1461 2.44853 -4.0617 -21.1795 4.12501 -3.56628 1.05448 4.25365 8.8057 4.19437 51.4794 17.7222 -0.937353 -3.24833 -18.2466 35.1826 -12.2526 -16.848 -4.06915 3.71377 -11.4483 9.34682 -15.6778 72.5599 -5.03638 -10.4067 11.3452 3.205 -6.36111e-015 3.18055e-015 -0 6.30815 -37.9149 -1.17117 7.57576 43.4091 10.3444 -14.7365 -2.03887 -33.9498 2.48481e-017 7.95139e-016 -3.97569e-016 
